<svg width="492" height="498" viewBox="0 0 492 498" fill="none" xmlns="http://www.w3.org/2000/svg">
<path d="M242 0H250V498H242V0Z" fill="#444"/>
<path d="M157.078 16.3846L164.596 13.6485L334.922 481.615L327.404 484.352L157.078 16.3846Z" fill="#444"/>
<path d="M82.8817 60.8261L89.0101 55.6838L409.118 437.174L402.99 442.316L82.8817 60.8261Z" fill="#444"/>
<path d="M28.3596 127.964L32.3596 121.036L463.64 370.036L459.64 376.964L28.3596 127.964Z" fill="#444"/>
<path d="M0.0882822 209.701L1.47747 201.822L491.912 288.299L490.523 296.178L0.0882822 209.701Z" fill="#444"/>
<path d="M1.47744 296.178L0.0882568 288.299L490.523 201.822L491.912 209.701L1.47744 296.178Z" fill="#444"/>
<path d="M32.3596 376.964L28.3596 370.036L459.64 121.036L463.64 127.964L32.3596 376.964Z" fill="#444"/>
<path d="M89.01 442.316L82.8817 437.174L402.99 55.6838L409.118 60.8261L89.01 442.316Z" fill="#444"/>
<path d="M164.596 484.352L157.078 481.615L327.404 13.6485L334.922 16.3846L164.596 484.352Z" fill="#444"/>
<path d="M250 498H242V0H250V498Z" fill="#444"/>
<path d="M334.922 481.615L327.404 484.352L157.078 16.3846L164.596 13.6485L334.922 481.615Z" fill="#444"/>
<path d="M409.118 437.174L402.99 442.316L82.8817 60.8261L89.0101 55.6838L409.118 437.174Z" fill="#444"/>
<path d="M463.64 370.036L459.64 376.964L28.3596 127.964L32.3596 121.036L463.64 370.036Z" fill="#444"/>
<path d="M491.912 288.299L490.523 296.178L0.0882822 209.701L1.47747 201.822L491.912 288.299Z" fill="#444"/>
<path d="M490.523 201.822L491.912 209.701L1.47744 296.178L0.0882568 288.299L490.523 201.822Z" fill="#444"/>
<path d="M459.64 121.036L463.64 127.964L32.3596 376.964L28.3596 370.036L459.64 121.036Z" fill="#444"/>
<path d="M402.99 55.6838L409.118 60.8261L89.01 442.316L82.8817 437.174L402.99 55.6838Z" fill="#444"/>
<path d="M327.404 13.6485L334.922 16.3846L164.596 484.352L157.078 481.615L327.404 13.6485Z" fill="#444"/>
<path d="M242 0H250V498H242V0Z" fill="#444"/>
<path d="M157.078 16.3846L164.596 13.6485L334.922 481.615L327.404 484.352L157.078 16.3846Z" fill="#444"/>
<path d="M82.8817 60.8261L89.0101 55.6838L409.118 437.174L402.99 442.316L82.8817 60.8261Z" fill="#444"/>
<path d="M28.3596 127.964L32.3596 121.036L463.64 370.036L459.64 376.964L28.3596 127.964Z" fill="#444"/>
<path d="M0.0882822 209.701L1.47747 201.822L491.912 288.299L490.523 296.178L0.0882822 209.701Z" fill="#444"/>
<path d="M1.47744 296.178L0.0882568 288.299L490.523 201.822L491.912 209.701L1.47744 296.178Z" fill="#444"/>
<path d="M32.3596 376.964L28.3596 370.036L459.64 121.036L463.64 127.964L32.3596 376.964Z" fill="#444"/>
</svg>
